<svg version="1.1" id="Layer_1" xmlns="http://www.w3.org/2000/svg" xmlns:xlink="http://www.w3.org/1999/xlink" x="0px" y="0px"
	 width="100%" viewBox="0 0 800 800" enable-background="new 0 0 800 800" xml:space="preserve">
<path fill="#000" opacity="1.000000" stroke="none" 
	d="
M800.778809,473.629944 
	C801.000000,476.041656 801.000000,478.083344 801.000000,480.562500 
	C799.599121,482.697815 797.711792,483.095581 795.627808,483.112000 
	C793.128662,483.131653 790.629517,483.152649 788.130310,483.152710 
	C705.486267,483.154205 622.842163,483.132324 540.198120,483.175781 
	C526.878906,483.182800 513.570862,483.213806 501.625549,481.521576 
	C533.080261,481.995178 566.337097,500.255737 586.828125,518.078186 
	C612.769653,540.641418 629.903809,568.479553 638.421692,601.686829 
	C641.154724,612.341553 642.537109,623.226685 643.081970,634.206665 
	C643.204468,636.674927 643.364441,639.250732 641.232910,641.677368 
	C639.417358,642.913635 637.779358,643.127625 636.101074,643.130371 
	C611.685059,643.170044 587.268616,643.418213 562.393677,642.960876 
	C539.512695,643.404541 517.088928,643.041321 494.666504,643.118896 
	C494.168243,643.120605 493.669800,643.101746 493.172211,643.075806 
	C491.156433,642.970947 488.576111,642.956177 488.194855,640.716553 
	C487.792572,638.353577 490.437775,637.731506 492.229828,637.096069 
	C508.522949,631.319336 516.973755,619.483032 519.097412,602.250305 
	C517.955872,581.287292 506.744202,568.055969 486.904449,563.656433 
	C484.527252,563.129333 481.877350,563.049805 479.913788,560.512146 
	C478.420624,557.463623 478.842865,554.587402 478.835022,551.790039 
	C478.779053,531.822021 478.825623,511.853821 478.798218,491.885712 
	C478.786774,483.532837 478.442627,483.216156 470.044464,483.200623 
	C467.883179,483.196594 465.716278,483.108887 463.080963,483.466003 
	C455.994598,482.246857 449.372101,482.176697 442.709717,482.950500 
	C439.899231,483.276917 437.054993,483.215820 434.221069,483.215576 
	C347.078674,483.208496 259.936279,483.217102 172.793915,483.187012 
	C169.151688,483.185730 165.457001,483.629791 161.459335,482.216431 
	C159.712677,480.795319 159.040817,479.269562 159.003113,477.563019 
	C158.705658,464.097382 159.587952,450.721497 162.398239,437.096985 
	C164.723679,433.989258 167.330521,435.065887 169.898346,435.786560 
	C190.030853,441.436890 209.726028,440.048523 227.983093,429.911621 
	C256.953003,413.826599 271.569153,388.648346 269.625946,355.505676 
	C268.077087,329.088501 254.741959,308.745209 232.377319,294.436798 
	C229.895386,292.848938 226.873138,291.875946 225.296326,288.584229 
	C225.009201,285.255768 226.879791,283.219971 228.496429,281.146759 
	C244.135300,261.091309 262.144562,243.427261 282.083130,227.649796 
	C299.395813,213.950211 317.930511,202.136871 337.681152,192.430313 
	C366.966766,178.037796 397.691132,167.818527 430.088715,162.976151 
	C444.908936,160.761017 459.768555,159.131943 474.764465,158.926254 
	C476.766113,158.898788 478.762085,158.958054 481.152588,159.211578 
	C483.504852,158.879608 485.463928,158.911377 487.852661,159.025192 
	C493.224548,160.380676 498.211334,161.092102 503.720520,160.018616 
	C519.281860,160.446213 534.103516,163.325851 548.921875,166.240707 
	C567.201599,169.836456 584.802002,175.480988 602.211304,182.182098 
	C632.511292,193.845062 659.592224,210.706055 684.811707,230.813248 
	C689.207092,234.317673 693.303040,238.252823 697.606995,242.437683 
	C698.375610,243.397476 698.763611,244.193954 699.599854,245.023438 
	C699.979004,245.340576 700.131348,245.464584 700.508423,245.774170 
	C700.878662,246.085083 701.024231,246.210419 701.588989,246.718475 
	C702.144836,247.229401 702.281555,247.357574 702.832642,247.863953 
	C703.391724,248.364563 703.536377,248.486969 704.147461,248.961685 
	C704.782532,249.428421 704.951233,249.542862 705.661499,250.009933 
	C706.393188,250.491104 706.583252,250.619675 707.059937,250.957306 
	C727.693726,271.488434 745.533203,293.770142 759.968018,318.694000 
	C780.041504,353.353973 793.253967,390.437103 799.189026,430.081879 
	C799.950562,435.168549 799.534851,440.350647 800.758179,445.707153 
	C801.000000,449.361298 801.000000,452.722565 801.000000,456.541931 
	C799.891418,462.393799 800.741760,467.840912 800.778809,473.629944 
z"/>
<path fill="#000" opacity="1.000000" stroke="none" 
	d="
M160.986511,480.377563 
	C140.376328,480.890076 119.771072,480.975739 99.165771,480.992737 
	C66.756310,481.019501 34.346802,480.999969 1.468657,481.000031 
	C1.000000,466.645782 1.000000,452.291534 1.000000,437.468658 
	C3.139701,433.308746 2.104525,429.156891 2.323188,425.296417 
	C3.791797,399.368164 9.720204,374.306152 16.545198,349.419769 
	C24.896763,318.966919 36.418201,289.692078 50.870354,261.644165 
	C68.706955,227.027969 90.397987,194.995956 115.851112,165.435989 
	C145.185623,131.368408 178.758865,102.253441 216.146912,77.453842 
	C250.190399,54.872704 286.641479,37.123150 325.294556,23.938885 
	C353.565399,14.295929 382.548218,7.499504 412.099152,3.229045 
	C420.128448,2.068717 428.328461,2.463413 436.702393,1.242743 
	C451.354218,1.000000 465.708466,1.000000 480.531342,1.000000 
	C483.989960,3.584752 483.160767,7.126993 483.166443,10.349172 
	C483.236786,50.265747 483.208435,90.182457 483.207062,130.099136 
	C483.206787,138.082397 483.277069,146.066254 483.156830,154.048645 
	C483.124847,156.171112 483.428162,158.428986 481.403625,160.564178 
	C448.561188,161.023407 416.695648,165.656281 385.722290,175.418152 
	C347.879669,187.345032 313.250458,205.531006 282.149353,230.327072 
	C261.081635,247.123810 242.302353,266.110046 225.945740,287.975769 
	C223.280380,289.978241 220.908920,288.702271 218.624969,287.885986 
	C194.442688,279.243164 171.306808,281.826263 149.920837,295.649353 
	C130.261261,308.356598 118.271614,326.586121 114.980598,350.076416 
	C111.414558,375.529724 119.210747,397.368652 136.691544,415.769257 
	C142.749603,422.146118 149.921875,427.378174 158.034698,431.129425 
	C160.253693,432.155487 162.781769,432.880005 164.019135,435.774414 
	C162.393768,450.701416 160.766037,465.245667 160.986511,480.377563 
z"/>
<path fill="#000" opacity="1.000000" stroke="none" 
	d="
M640.617310,641.350342 
	C640.814636,604.498108 629.642639,571.714966 607.265747,542.806335 
	C587.217285,516.905762 561.431213,499.066254 530.401672,488.791718 
	C518.851257,484.967133 506.981262,482.531921 494.814514,480.999084 
	C596.563904,480.999084 698.313293,480.999084 800.531372,480.999542 
	C801.000000,492.687561 801.000000,504.375122 801.000000,516.531372 
	C798.963440,519.822205 799.900635,523.179138 799.714600,526.199585 
	C798.724365,542.272400 794.824707,557.736450 790.281494,573.039062 
	C779.278931,610.098572 762.179077,644.128601 738.872009,675.016052 
	C707.414734,716.704529 668.143738,748.961487 621.192139,771.681213 
	C593.197632,785.227600 563.838196,794.818237 532.916931,799.176086 
	C527.832947,799.892639 522.650574,799.505554 517.295532,800.757690 
	C508.979095,801.000000 500.958191,801.000000 492.468628,801.000000 
	C492.154999,798.179688 494.396454,798.185120 496.289703,798.023682 
	C527.752136,795.341797 555.713928,783.714905 580.050171,763.920837 
	C611.656006,738.213806 630.849670,705.064941 637.051941,664.619202 
	C638.009338,658.376221 639.053955,652.141602 638.981995,645.790833 
	C638.964722,644.264160 639.227783,642.799683 640.617310,641.350342 
z"/>
<path fill="#000" opacity="1.000000" stroke="none" 
	d="
M455.468658,801.000000 
	C454.230377,796.941589 450.419586,798.707886 448.448792,798.292114 
	C423.173370,792.959229 400.567200,782.356995 380.451294,766.098145 
	C354.086853,744.788940 336.203491,717.996826 326.746033,685.471863 
	C322.602905,671.223206 320.306427,656.776245 321.094147,641.446228 
	C322.390045,639.373474 324.100891,638.896484 326.017944,638.897461 
	C350.336700,638.909729 374.657654,638.364014 399.381287,639.362549 
	C402.292053,640.651489 402.847504,642.860168 403.032440,645.280884 
	C404.493317,664.404236 411.541443,681.227356 424.856628,694.992004 
	C436.974640,707.519165 451.799561,715.340881 469.232178,718.059021 
	C473.526337,718.728638 478.359375,717.707336 482.206696,721.596252 
	C483.477020,724.364136 483.170898,726.894409 483.176819,729.362610 
	C483.227142,750.297974 483.241241,771.233704 483.161041,792.168945 
	C483.150513,794.916077 483.809174,797.880188 481.336884,800.638428 
	C472.645782,801.000000 464.291534,801.000000 455.468658,801.000000 
z"/>
<path fill="#000" opacity="1.000000" stroke="none" 
	d="
M481.458069,801.000000 
	C480.992676,774.655334 480.985382,748.310730 480.967285,721.499634 
	C483.837372,717.617493 488.085693,718.651550 491.646240,718.182007 
	C525.789795,713.679260 553.679626,685.822510 558.154602,651.628052 
	C558.592346,648.282776 558.067383,644.570557 560.710449,641.333130 
	C587.302673,641.042664 613.631897,641.033630 640.418091,641.042908 
	C641.081360,676.978455 630.152771,709.295410 608.417786,737.704468 
	C581.435242,772.972534 545.605713,793.523315 501.603424,799.721802 
	C498.647858,800.138245 495.654572,800.286682 492.339417,800.779846 
	C488.638702,801.000000 485.277435,801.000000 481.458069,801.000000 
z"/>
<path fill="#000" opacity="1.000000" stroke="none" 
	d="
M801.000000,473.532410 
	C799.320129,468.586182 799.856201,463.092743 800.705444,457.299316 
	C801.000000,462.354919 801.000000,467.709869 801.000000,473.532410 
z"/>
<path fill="#000" opacity="1.000000" stroke="none" 
	d="
M401.568939,640.490723 
	C374.687561,640.990479 348.384094,640.990540 321.622559,640.986145 
	C319.910767,611.700012 328.137878,584.976929 342.525543,559.746643 
	C349.468506,547.571411 357.935303,536.557861 367.815521,526.882141 
	C386.141602,508.935425 407.504700,495.556732 432.231293,487.994873 
	C442.151215,484.961182 452.147095,482.262878 462.753357,481.425720 
	C467.385864,481.023285 471.879517,481.251495 476.332458,480.924805 
	C480.763916,480.599670 481.049164,483.023315 481.038391,486.426605 
	C480.960815,510.966522 480.992828,535.506836 480.784729,560.845459 
	C477.731842,563.847961 474.199677,563.285461 471.008209,563.755859 
	C435.315826,569.015930 409.405548,594.832825 403.838715,630.746338 
	C403.361176,633.826904 403.538727,637.066406 401.568939,640.490723 
z"/>
<path fill="none" opacity="1.000000" stroke="none" 
	d="
M164.428116,436.178040 
	C143.836929,427.860443 128.617737,414.200378 119.260300,394.283051 
	C96.774460,346.421936 128.395645,288.767761 180.711304,281.856934 
	C196.182327,279.813232 210.826508,282.047699 225.400589,288.182770 
	C245.562546,298.385071 259.832092,313.428040 267.450256,334.571716 
	C284.381897,381.564270 252.733185,433.474670 203.152969,440.140198 
	C189.980270,441.911163 177.270309,440.536285 164.428116,436.178040 
z"/>
<path fill="#000" opacity="1.000000" stroke="none" 
	d="
M560.507690,641.035034 
	C561.325134,684.500854 525.398682,720.817078 481.413696,721.022827 
	C436.599274,720.497253 401.182251,685.444885 400.994080,641.443726 
	C400.991028,640.990417 400.999237,641.000000 400.995087,640.995850 
	C402.519989,639.107422 404.640442,638.831299 406.858490,638.857544 
	C426.654358,639.092102 446.463348,638.039917 466.246765,639.458008 
	C468.601349,639.626709 470.893127,639.304871 473.620361,638.627808 
	C477.974609,638.808472 478.823364,636.471069 478.826599,633.194336 
	C478.834595,625.051086 478.782013,616.907471 478.860992,608.764709 
	C478.883362,606.460083 478.573303,604.095032 479.825195,601.475952 
	C480.235779,600.817322 480.441101,600.576599 481.048828,600.073608 
	C483.445862,598.756897 485.626556,598.847290 487.774597,598.834900 
	C496.564240,598.784180 505.354401,598.750916 514.143555,598.856323 
	C516.261292,598.881714 518.515625,598.596497 520.594910,600.682617 
	C521.572449,615.312378 512.197388,634.195496 489.610382,641.018311 
	C513.087524,641.018311 536.564697,641.018311 560.507690,641.035034 
z"/>
<path fill="#000" opacity="1.000000" stroke="none" 
	d="
M520.962524,600.594421 
	C507.940369,601.016968 494.934326,601.006287 481.458984,600.993408 
	C479.164856,599.893494 478.943817,598.071777 478.909729,596.216492 
	C478.723816,586.095825 478.720215,575.974548 478.911102,565.853821 
	C478.939575,564.344177 479.127625,562.861328 480.643494,561.352783 
	C480.982117,560.978943 480.996521,560.990784 480.987854,560.986450 
	C503.038269,561.344360 520.485168,578.433411 520.962524,600.594421 
z"/>
<path fill="#000" opacity="1.000000" stroke="none" 
	d="
M488.442230,161.370743 
	C493.622620,161.181885 499.154724,161.186432 504.903564,161.577301 
	C499.674438,161.982788 494.221466,162.294098 488.442230,161.370743 
z"/>
<path fill="#000" opacity="1.000000" stroke="none" 
	d="
M697.165222,245.113861 
	C698.185547,244.894104 699.137207,245.421112 700.035583,246.618149 
	C698.892334,247.039001 697.999329,246.432953 697.165222,245.113861 
z"/>
<path fill="#000" opacity="1.000000" stroke="none" 
	d="
M704.143433,251.180420 
	C704.342834,251.104996 704.681396,251.291626 705.173035,251.739685 
	C704.978271,251.814926 704.630493,251.628708 704.143433,251.180420 
z"/>
<path fill="#000" opacity="1.000000" stroke="none" 
	d="
M703.117615,250.157684 
	C703.323853,250.091965 703.638855,250.267410 704.018616,250.716629 
	C703.797729,250.793213 703.512024,250.596024 703.117615,250.157684 
z"/>
<path fill="#000" opacity="1.000000" stroke="none" 
	d="
M702.114380,249.157745 
	C702.323853,249.089661 702.640320,249.264862 703.020264,249.715240 
	C702.796326,249.793945 702.508850,249.597473 702.114380,249.157745 
z"/>
<path fill="#000" opacity="1.000000" stroke="none" 
	d="
M701.122192,248.148666 
	C701.311829,248.096420 701.624023,248.276596 702.008423,248.727341 
	C701.802063,248.792282 701.523376,248.586685 701.122192,248.148666 
z"/>
<path fill="#000" opacity="1.000000" stroke="none" 
	d="
M700.133423,247.074493 
	C700.317444,247.039795 700.627563,247.245865 701.009521,247.727982 
	C700.807312,247.774445 700.533447,247.544861 700.133423,247.074493 
z"/>
<path fill="#000" opacity="1.000000" stroke="none" 
	d="
M480.531433,560.986694 
	C480.986694,574.004578 480.991272,587.030212 480.992767,600.523560 
	C480.989685,600.991272 480.999664,600.998291 480.995483,600.993896 
	C479.305695,603.030273 476.980255,603.086670 474.611481,603.093567 
	C465.957703,603.118591 457.303223,603.025513 448.650421,603.134460 
	C443.643555,603.197510 442.999756,603.839905 444.134094,608.763306 
	C447.334259,622.652832 455.798706,631.972961 469.178802,636.879883 
	C471.303009,637.658875 473.834625,637.806274 475.002258,640.580811 
	C450.595367,640.978455 426.262634,640.988220 401.460388,640.994873 
	C401.422638,596.837341 436.322418,561.537170 480.531433,560.986694 
z"/>
<path fill="#000" opacity="1.000000" stroke="none" 
	d="
M175.679276,397.485901 
	C157.745682,388.671204 149.037308,371.145966 152.994629,352.290222 
	C156.642166,334.910492 172.529663,321.625519 190.361069,321.044800 
	C209.023438,320.437042 225.440781,332.162384 230.379623,350.105072 
	C234.641205,365.587280 230.850708,379.316895 219.130219,390.167450 
	C206.595291,401.771942 191.893600,403.850586 175.679276,397.485901 
z"/>
<path fill="#000" opacity="1.000000" stroke="none" 
	d="
M475.365906,640.979553 
	C466.774078,638.545532 458.930878,635.613220 452.767273,629.314697 
	C446.238068,622.642700 442.680450,614.615723 441.140503,605.538696 
	C440.515442,601.854309 442.274200,600.926514 445.619598,600.958801 
	C457.097412,601.069763 468.576965,600.998108 480.523590,600.992798 
	C480.993927,612.530640 480.866791,624.074097 481.070374,635.611572 
	C481.140503,639.585693 480.032623,641.610413 475.365906,640.979553 
z"/>
</svg>