<svg xmlns="http://www.w3.org/2000/svg" data-name="Layer 1" viewBox="0 0 48 60" x="0px" y="0px"><title>16-shrine</title><path d="M43.78,17.69h-4l-.46-5.05h2.55a1,1,0,0,0,1-1V9.79c-1.75.29-4.32.6-8.13.92-5.36.44-10.64.68-10.69.69H24s-5.33-.25-10.69-.69c-3.81-.32-6.38-.63-8.13-.92v1.84a1,1,0,0,0,1,1H8.72l-.46,5.05h-4a.76.76,0,0,0-.77.77v2.72a.77.77,0,0,0,.77.78H7.88l-2,22.2a.65.65,0,0,0,.64.7h4.15a.64.64,0,0,0,.64-.62L12.15,22h23.7l.86,22.28a.64.64,0,0,0,.64.62H41.5a.65.65,0,0,0,.64-.7l-2-22.2h3.66a.77.77,0,0,0,.77-.78V18.46A.76.76,0,0,0,43.78,17.69Zm-21.84,0H12.31l.19-5.05h9.44Zm4.12,0V12.64H35.5l.19,5.05Z"/><path d="M47.7,3.15A104.58,104.58,0,0,1,24,5.71,104.58,104.58,0,0,1,.3,3.15a.24.24,0,0,0-.29.3,17.66,17.66,0,0,0,1.8,4.72C3,9.88,24,10.83,24,10.83s21-.95,22.19-2.66A17.66,17.66,0,0,0,48,3.45.24.24,0,0,0,47.7,3.15Z"/></svg>