<svg xmlns="http://www.w3.org/2000/svg" xmlns:xlink="http://www.w3.org/1999/xlink" version="1.1" x="0px" y="0px" viewBox="0 0 100 100" enable-background="new 0 0 100 100" xml:space="preserve"><path d="M96.019,46.563c-1.025,0-1.942,0.45-2.576,1.161V47.66l-8.879-1.634c-0.752-6.554-3.34-12.55-7.234-17.465l5.125-7.435  l-0.046-0.044c0.948,0.054,1.915-0.277,2.641-1c1.347-1.347,1.347-3.532,0-4.879c-1.348-1.349-3.532-1.349-4.882,0  c-0.723,0.723-1.055,1.688-1,2.638l-0.045-0.044l-7.433,5.124c-4.914-3.895-10.91-6.48-17.467-7.235L52.59,6.806h-0.065  c0.71-0.632,1.161-1.551,1.161-2.575c0-1.906-1.545-3.451-3.451-3.451s-3.453,1.545-3.453,3.451c0,1.023,0.45,1.942,1.161,2.575  h-0.064l-1.634,8.878c-6.554,0.754-12.55,3.34-17.465,7.235l-7.435-5.124l-0.044,0.044c0.056-0.95-0.277-1.915-1-2.638  c-1.347-1.349-3.534-1.349-4.879,0c-1.349,1.347-1.349,3.532,0,4.879c0.723,0.723,1.688,1.055,2.638,1l-0.044,0.044l5.124,7.435  c-3.895,4.915-6.48,10.911-7.235,17.465L7.025,47.66v0.064c-0.632-0.711-1.551-1.161-2.575-1.161C2.545,46.563,1,48.109,1,50.015  s1.545,3.451,3.451,3.451c1.023,0,1.942-0.45,2.575-1.161v0.065l8.878,1.633c0.754,6.557,3.34,12.553,7.235,17.467l-5.124,7.433  l0.044,0.045c-0.95-0.055-1.915,0.279-2.638,1c-1.349,1.35-1.349,3.534,0,4.882c1.345,1.347,3.532,1.347,4.879,0  c0.723-0.726,1.057-1.69,1-2.641l0.044,0.046l7.435-5.125c4.915,3.895,10.911,6.482,17.465,7.234l1.634,8.879h0.064  c-0.711,0.634-1.161,1.551-1.161,2.576c0,1.904,1.547,3.449,3.453,3.449s3.451-1.545,3.451-3.449c0-1.025-0.451-1.942-1.161-2.576  h0.065l1.633-8.879c6.557-0.752,12.553-3.34,17.467-7.234l7.433,5.125l0.047-0.046c-0.057,0.95,0.275,1.915,0.998,2.641  c1.35,1.347,3.534,1.347,4.882,0c1.347-1.348,1.347-3.532,0-4.882c-0.726-0.721-1.69-1.055-2.641-0.998l0.046-0.047l-5.125-7.433  c3.895-4.914,6.482-10.91,7.234-17.467l8.879-1.633v-0.065c0.634,0.711,1.551,1.161,2.576,1.161c1.904,0,3.449-1.545,3.449-3.451  S97.923,46.563,96.019,46.563z M70.454,66.034l-3.568-5.179l-7.828-5.395c0.577-0.931,1.01-1.96,1.266-3.06l9.35,1.722l6.188-1.14  C75.299,57.884,73.364,62.364,70.454,66.034z M24.608,52.983l6.186,1.14l9.35-1.722c0.258,1.1,0.69,2.129,1.266,3.06l-7.826,5.395  l-3.569,5.179C27.102,62.364,25.17,57.884,24.608,52.983z M30.015,33.995l3.569,5.18l7.826,5.394  c-0.576,0.932-1.008,1.961-1.266,3.059l-9.35-1.72l-6.186,1.138C25.17,42.146,27.102,37.664,30.015,33.995z M50.235,55.479  c-3.019,0-5.463-2.445-5.463-5.463c0-3.019,2.444-5.463,5.463-5.463c3.018,0,5.463,2.444,5.463,5.463  C55.698,53.033,53.253,55.479,50.235,55.479z M55.681,41.19c-0.931-0.576-1.96-1.008-3.06-1.266l1.722-9.35l-1.138-6.186  c4.898,0.562,9.379,2.493,13.049,5.407l-5.179,3.569L55.681,41.19z M47.847,39.925c-1.098,0.258-2.127,0.69-3.059,1.266  l-5.394-7.826l-5.18-3.569c3.669-2.914,8.152-4.845,13.049-5.407l-1.136,6.186L47.847,39.925z M39.394,66.666l5.394-7.828  c0.932,0.577,1.961,1.01,3.059,1.266l-1.72,9.35l1.136,6.188c-4.897-0.563-9.379-2.495-13.049-5.407L39.394,66.666z M52.621,60.104  c1.1-0.256,2.129-0.688,3.06-1.266l5.395,7.828l5.179,3.568c-3.67,2.912-8.15,4.845-13.049,5.407l1.138-6.188L52.621,60.104z   M69.673,45.907l-9.35,1.72c-0.256-1.098-0.688-2.127-1.266-3.059l7.828-5.394l3.568-5.18c2.91,3.669,4.845,8.152,5.407,13.051  L69.673,45.907z"/></svg>